<svg width="35" height="29" viewBox="0 0 35 29" fill="none" xmlns="http://www.w3.org/2000/svg">
<path d="M18.1147 15.8873C18.1782 14.7403 18.7323 13.7298 19.5683 13.0135C20.3881 12.3099 21.4916 11.8799 22.6956 11.8799C23.8984 11.8799 25.0019 12.3099 25.8223 13.0135C26.6577 13.7298 27.2118 14.7403 27.2758 15.8861C27.3393 17.0646 26.8719 18.1594 26.0521 18.9709C25.2161 19.7964 24.027 20.3144 22.6956 20.3144C21.3641 20.3144 20.1727 19.7964 19.3373 18.9709C18.5169 18.1594 18.0507 17.0646 18.1147 15.8873Z" fill="#D8DADD"/>
<path d="M10.8424 18.2435C10.8502 18.6933 10.9917 19.5674 11.204 20.25C11.6502 21.6948 12.407 23.0314 13.4601 24.2094C14.5407 25.4202 15.8714 26.3927 17.4085 27.0832C19.024 27.8084 20.7745 28.1779 22.5928 28.1749C24.4081 28.1725 26.1586 27.7956 27.7742 27.065C29.3112 26.3678 30.6407 25.391 31.7196 24.1796C32.772 22.9968 33.5276 21.6577 33.975 20.2129C34.1999 19.4829 34.342 18.7419 34.399 17.9985C34.4548 17.2661 34.4314 16.5324 34.3288 15.7994C34.1285 14.371 33.641 13.0307 32.8902 11.8089C32.2035 10.6863 31.3184 9.70341 30.2659 8.87614L30.2683 8.87432L19.6471 0.60837C19.6375 0.601076 19.6297 0.593174 19.6195 0.586488C18.9227 0.0442993 17.7509 0.0461228 16.9845 0.589527C16.2097 1.13901 16.1209 2.04772 16.8106 2.62091L16.8076 2.62395L21.2375 6.27522L7.73538 6.28981H7.71739C6.60136 6.29102 5.52851 7.03319 5.31621 7.97108C5.09792 8.92659 5.85594 9.71921 7.01635 9.72347L7.01455 9.72772L13.8583 9.71435L1.64608 19.2154C1.63049 19.227 1.6137 19.2391 1.59931 19.2507C0.447294 20.1448 0.0748835 21.6316 0.800514 22.5725C1.53694 23.5292 3.10274 23.5311 4.26675 22.578L10.9318 17.0491C10.9318 17.0491 10.8346 17.7955 10.8424 18.2435ZM27.9691 20.7429C26.5958 22.161 24.6732 22.9652 22.5928 22.9694C20.5095 22.9731 18.5869 22.1762 17.2136 20.7605C16.5425 20.0706 16.0495 19.2768 15.7455 18.4313C15.4475 17.6004 15.3317 16.7184 15.4085 15.8286C15.481 14.9588 15.7365 14.1291 16.1443 13.3784C16.5449 12.6405 17.0966 11.9737 17.7779 11.4096C19.1128 10.307 20.8123 9.71009 22.5898 9.70766C24.3691 9.70523 26.0674 10.2967 27.4036 11.3956C28.0836 11.9573 28.6347 12.6216 29.0353 13.3583C29.4449 14.1084 29.6986 14.935 29.7742 15.8073C29.8497 16.6959 29.734 17.5767 29.4359 18.4082C29.1313 19.2561 28.6401 20.05 27.9691 20.7429Z" fill="#D8DADD"/>
</svg>
