<svg width="629" height="382" viewBox="0 0 629 382" fill="none" xmlns="http://www.w3.org/2000/svg">
<path d="M285.7 240.28L224.31 9.43C223.14 5.05 219.18 2 214.65 2H12C6.47 2.01 2 6.48 2 12.01V370.68C2 376.2 6.48 380.68 12 380.68H67.35C72.87 380.68 77.35 376.2 77.35 370.68V251.97C77.35 246.45 81.83 241.97 87.35 241.97H203.71C208.23 241.97 212.2 245.01 213.37 249.38L248.6 380.68H323.95L285.71 240.28H285.7ZM77.34 174.47V69.51H165.09L193.58 174.47H77.34Z" fill="#F3F5F7"/>
<path fill-rule="evenodd" clip-rule="evenodd" d="M0.855469 12.0102C0.855469 5.84787 5.8381 0.865234 12.0005 0.865234H78.4955V370.68C78.4955 376.833 73.5028 381.825 67.3505 381.825H12.0005C5.8481 381.825 0.855469 376.833 0.855469 370.68V12.0102ZM76.2055 3.15523H12.0005C7.10284 3.15523 3.14547 7.1126 3.14547 12.0102V370.68C3.14547 375.568 7.11284 379.535 12.0005 379.535H67.3505C72.2381 379.535 76.2055 375.568 76.2055 370.68V3.15523Z" fill="#4D609C"/>
<path d="M628.58 2.00977L526.96 380.67H451.61L553.23 2.00977H628.58Z" fill="#F3F5F7"/>
<path d="M452.71 379.54L351.71 3.16016H424.69L525.69 379.54H452.71Z" fill="#F3F5F7"/>
<path d="M423.81 4.30977L524.2 378.4H453.59L353.2 4.30977H423.81ZM425.57 2.01977H350.22L451.84 380.69H527.19L425.56 2.00977L425.57 2.01977Z" fill="#4D609C"/>
<path d="M350.21 2.01953L248.59 380.67H323.94L425.56 2.01953H350.21Z" fill="#FFC857"/>
</svg>
