<svg width="36" height="36" viewBox="0 0 36 36" fill="none" xmlns="http://www.w3.org/2000/svg">
<g clip-path="url(#clip0_1173_810)">
<path d="M18 35.1429C27.4672 35.1429 35.1429 27.4672 35.1429 18C35.1429 8.53289 27.4672 0.857178 18 0.857178C8.53289 0.857178 0.857178 8.53289 0.857178 18C0.857178 27.4672 8.53289 35.1429 18 35.1429ZM10.0157 10.5129C12.2286 8.44289 15.3072 6.85575 18.1486 5.84575C22.9272 4.14718 27.9772 5.14861 28.7515 8.19575L28.6472 8.10003C29.3972 11.1 26.8043 14.68 23.4843 15.9643C20.5272 17.12 18.0615 16.9286 17.0557 16.6072C15.8972 16.2215 15.2329 15.4715 15.0615 15.0429C14.9972 14.8715 14.89 14.5929 15.0615 14.5072C15.1686 14.4415 15.2115 14.4629 15.51 14.7843C15.79 15.0857 16.8829 15.8986 18.9829 15.6629C24.49 15.0429 27.7886 10.7772 26.7415 8.48575C26.0129 6.87861 21.79 6.14861 16.4972 8.78575C10.0472 12 9.68289 14.6557 9.64003 15.6629C9.49003 18.4272 13.0686 19.8843 14.9972 21.9629C15.06 22.0057 15.1043 22.0486 15.1472 22.1129C15.7243 21.8772 16.54 21.77 17.8257 21.7472C20.9529 21.7057 22.7115 23.7615 22.6472 25.6043C22.5829 27.0629 21.2529 27.6629 21.0172 27.7057C20.8472 27.7272 20.7386 27.7272 20.7172 27.5986C20.6972 27.5115 20.7615 27.47 20.9757 27.34C21.1915 27.2115 21.81 26.7615 21.9386 25.9915C22.0686 25.22 21.4686 23.3343 18.4672 22.9915C17.3957 22.8615 16.5615 22.9472 15.8529 23.14C16.37 24.2757 16.4757 26.59 15.2757 28.3915C14.0329 30.2329 11.7186 31.37 9.46861 30.7472C8.74003 30.5557 7.62575 29.0543 8.59003 26.9543C9.49003 24.96 13.3315 23.0329 13.8557 22.7757V22.7672C12.0757 21.2343 7.74718 19.1686 7.13718 16.01C6.96432 15.1143 7.38289 12.9715 10.0157 10.5129Z" stroke="#D8DADD" stroke-width="1.32" stroke-miterlimit="1" stroke-linejoin="round"/>
<path d="M10.5758 29.0871C11.1729 29.4329 12.5643 29.0214 13.5615 27.9371C13.8886 27.58 14.1543 27.1943 14.3543 26.78C14.3915 26.7 14.4315 26.6157 14.4658 26.5286L14.5586 26.2714C14.8158 25.4943 14.8429 24.6329 14.5929 23.7114L14.4386 23.7986V23.8029C14.4386 23.8029 12.6543 24.6471 11.4101 25.9586C10.2529 27.18 9.93291 28.7129 10.5758 29.0871Z" stroke="#D8DADD" stroke-width="1.32" stroke-miterlimit="1" stroke-linejoin="round"/>
</g>
<defs>
<clipPath id="clip0_1173_810">
<rect width="36" height="36" fill="white"/>
</clipPath>
</defs>
</svg>
