<svg width="825" height="825" viewBox="0 0 825 825" fill="none" xmlns="http://www.w3.org/2000/svg">
<rect width="825" height="825" rx="44" fill="#050B10"/>
<path d="M383.845 461.415L322.455 230.565C321.285 226.185 317.325 223.135 312.795 223.135H110.145C104.615 223.145 100.145 227.615 100.145 233.145V591.815C100.145 597.335 104.625 601.815 110.145 601.815H165.495C171.015 601.815 175.495 597.335 175.495 591.815V473.105C175.495 467.585 179.975 463.105 185.495 463.105H301.855C306.375 463.105 310.345 466.145 311.515 470.515L346.745 601.815H422.095L383.855 461.415H383.845ZM175.485 395.605V290.645H263.235L291.725 395.605H175.485Z" fill="#F3F5F7"/>
<path fill-rule="evenodd" clip-rule="evenodd" d="M99 233.145C99 226.983 103.983 222 110.145 222H176.64V591.815C176.64 597.967 171.647 602.96 165.495 602.96H110.145C103.993 602.96 99 597.967 99 591.815V233.145ZM174.35 224.29H110.145C105.247 224.29 101.29 228.247 101.29 233.145V591.815C101.29 596.703 105.257 600.67 110.145 600.67H165.495C170.383 600.67 174.35 596.703 174.35 591.815V224.29Z" fill="#4D609C"/>
<path d="M726.725 223.145L625.105 601.805H549.755L651.375 223.145H726.725Z" fill="#F3F5F7"/>
<path d="M550.854 600.675L449.854 224.295H522.835L623.835 600.675H550.854Z" fill="#F3F5F7"/>
<path d="M521.954 225.445L622.344 599.535H551.734L451.344 225.445H521.954ZM523.714 223.155H448.364L549.984 601.825H625.334L523.704 223.145L523.714 223.155Z" fill="#4D609C"/>
<path d="M448.354 223.155L346.734 601.805H422.084L523.704 223.155H448.354Z" fill="#FFC857"/>
</svg>
