<svg width="25" height="24" viewBox="0 0 25 24" fill="none" xmlns="http://www.w3.org/2000/svg">
<g clip-path="url(#clip0_1202_458)">
<path d="M0.5 7.5H5.867V24H0.5V7.5ZM20.486 7.6935C20.429 7.6755 20.375 7.656 20.315 7.6395C20.243 7.6232 20.1704 7.60919 20.0975 7.5975C19.7806 7.53271 19.458 7.50004 19.1345 7.5C16.0055 7.5 14.021 9.7755 13.367 10.6545V7.5H8V24H13.367V15C13.367 15 17.423 9.351 19.1345 13.5V24H24.5V12.8655C24.4978 11.6807 24.1025 10.5301 23.3761 9.59416C22.6496 8.65818 21.6332 7.9897 20.486 7.6935Z" fill="#1976D2"/>
<path d="M3.125 5.25C4.57475 5.25 5.75 4.07475 5.75 2.625C5.75 1.17525 4.57475 0 3.125 0C1.67525 0 0.5 1.17525 0.5 2.625C0.5 4.07475 1.67525 5.25 3.125 5.25Z" fill="#1976D2"/>
</g>
<defs>
<clipPath id="clip0_1202_458">
<rect width="24" height="24" fill="white" transform="translate(0.5)"/>
</clipPath>
</defs>
</svg>
