<?xml version="1.0" encoding="UTF-8"?>
<svg id="Layer_2" data-name="Layer 2" xmlns="http://www.w3.org/2000/svg" viewBox="0 0 626.59 378.67">
  <defs>
    <style>
      .cls-1 {
        fill: #0b0f12;
      }

      .cls-1, .cls-2 {
        stroke-width: 0px;
      }

      .cls-2 {
        fill: #6586c4;
      }
    </style>
  </defs>
  <g id="logo_light" data-name="logo light">
    <g>
      <path class="cls-2" d="m223.5,378.67h-29v-10h19v-18.33h10v28.33Zm-56.35,0h-29v-28.33h10v18.33h19v10Zm56.35-121.48h-10v47.24h10v-47.24Zm0-94.48h-10v47.24h10v-47.24Zm0-94.48h-10v47.24h10v-47.24Zm-75.35,188.95h-10v47.24h10v-47.24Zm0-94.48h-10v47.24h10v-47.24Zm0-94.48h-10v47.24h10v-47.24Z"/>
      <path class="cls-2" d="m363.01,17.35l-9.66,2.59s8.37,31.19,11.38,42.4h0c.02.08.04.16.06.23h0s.01.05.02.08v.02s.03.09.04.14h0s.02.09.03.13l.9,3.36,9.66-2.59-12.44-46.36h0Zm24.88,92.72l-9.66,2.59,2.96,11.04s.01.04.02.06l.02.06s0,.02,0,.03v.05c3.7,13.72,9.44,35.12,9.44,35.12l9.66-2.59-12.44-46.36h0Zm24.88,92.72l-9.66,2.59s8.69,32.4,11.55,43.03h0c.02.09.05.17.07.25l.02.07s.02.07.03.1h0s.02.09.03.13v.02s.02.04.02.06h0s.01.04.02.06h0s0,.03,0,.04h0s0,.02,0,.02l.04.16s0,0,0,0l.03.12s0,0,0,0l.61,2.28,9.66-2.59-12.44-46.36h0Zm24.88,92.72l-9.66,2.59,2.74,10.2s0,0,0,.01v.05s.01,0,.01,0l.02.09s0,.03.01.04v.04s.01,0,.01,0v.05s.01,0,.01,0v.05s.03.06.04.08l.02.07s0,.02,0,.03l.03.11s0,.02,0,.03h0c3.68,13.72,9.52,35.5,9.52,35.5l9.66-2.59-12.44-46.36h0Zm72.55,73.15h-48v10h48v-10h0Zm-31.17-161.18l-9.66,2.59,12.44,46.36,9.66-2.59-12.44-46.36h0Zm-24.88-92.72l-9.66,2.59,12.44,46.36,9.66-2.59-12.44-46.36h0Zm-24.88-92.72l-9.66,2.59,12.44,46.36,9.66-2.59-12.44-46.36h0Z"/>
      <path class="cls-2" d="m613.55,10l-96.25,358.66h-54.64L558.91,10h54.64M626.59,0h-75.35l-101.62,378.66h75.35L626.59,0h0Z"/>
      <path class="cls-1" d="m346.22,7.39l-62.51,230.88L222.32,7.43c-1.17-4.38-5.13-7.43-9.66-7.43H10C4.48,0,0,4.48,0,10v358.67c0,5.52,4.48,10,10,10h55.35c5.52,0,10-4.48,10-10v-118.71c0-5.52,4.48-10,10-10h116.36c4.52,0,8.49,3.04,9.66,7.41l33.24,123.89c1.17,4.37,5.13,7.41,9.66,7.41h60.01c4.52,0,8.49-3.04,9.66-7.41L420.19,12.59c1.7-6.35-3.08-12.59-9.66-12.59h-54.66c-4.52,0-8.47,3.03-9.65,7.39ZM75.35,172.46v-104.96h87.75l28.49,104.96h-116.24Z"/>
    </g>
  </g>
</svg>