<svg width="35" height="38" viewBox="0 0 35 38" fill="none" xmlns="http://www.w3.org/2000/svg">
<path d="M17.4798 37L17.3095 37.6377L17.4797 37.6831L17.6499 37.6377L17.4798 37ZM4.00326 33.4013L3.34607 33.4622L3.38853 33.9202L3.83298 34.0389L4.00326 33.4013ZM30.9936 33.3963L31.1637 34.034L31.6083 33.9154L31.6508 33.4573L30.9936 33.3963ZM34 1L34.6572 1.06099L34.7241 0.34H34V1ZM1 1V0.34H0.275996L0.342817 1.06091L1 1ZM8.2549 19.6401L7.59774 19.7014L7.65353 20.3001H8.2549V19.6401ZM7.88468 15.6663V15.0063H7.16034L7.22753 15.7275L7.88468 15.6663ZM22.5727 19.6401L23.2298 19.7013L23.2969 18.9801H22.5727V19.6401ZM22.093 24.794L22.2589 25.4328L22.7072 25.3164L22.7502 24.8551L22.093 24.794ZM17.4853 25.9902L17.3195 25.3514L16.8253 25.4797V25.9902H17.4853ZM17.4853 25.9906L17.648 26.6302L18.1453 26.5038V25.9906H17.4853ZM17.4817 25.9915L17.3158 26.6303L17.48 26.6729L17.6443 26.6311L17.4817 25.9915ZM12.8808 24.7965L12.2236 24.8575L12.2664 25.3188L12.7149 25.4353L12.8808 24.7965ZM12.5866 21.6271L13.2438 21.5661L13.1882 20.9671H12.5866V21.6271ZM8.43949 21.6271V20.9671H7.71544L7.78231 21.6881L8.43949 21.6271ZM9.01823 27.8667L8.36105 27.9277L8.40353 28.3857L8.84796 28.5044L9.01823 27.8667ZM17.4808 30.1264L17.3106 30.764L17.4791 30.809L17.6478 30.7649L17.4808 30.1264ZM17.4998 30.1214L17.6669 30.7599L18.1598 30.631V30.1214H17.4998ZM17.4998 30.1206L17.3298 29.4829L16.8398 29.6135V30.1206H17.4998ZM25.9547 27.8667L26.1247 28.5045L26.5695 28.3859L26.6119 27.9275L25.9547 27.8667ZM26.0168 27.1953L25.3596 27.1343L25.3596 27.1346L26.0168 27.1953ZM26.9877 16.7334L26.3306 16.6713L26.3305 16.6724L26.9877 16.7334ZM27.0885 15.6663L27.7455 15.7283L27.7456 15.7272L27.0885 15.6663ZM27.8342 7.62305L28.4914 7.68398L28.5582 6.96305H27.8342V7.62305ZM7.14062 7.62305V6.96305H6.41532L6.48355 7.68514L7.14062 7.62305ZM7.51615 11.5969L6.85907 11.659L6.91557 12.2569H7.51615V11.5969ZM23.3067 11.5969L23.9639 11.6576L24.0305 10.9369H23.3067V11.5969ZM22.9308 15.6663V16.3263H23.5327L23.588 15.727L22.9308 15.6663ZM17.6501 36.3623L4.17353 32.7636L3.83298 34.0389L17.3095 37.6377L17.6501 36.3623ZM30.8236 32.7586L17.3098 36.3623L17.6499 37.6377L31.1637 34.034L30.8236 32.7586ZM33.3428 0.939014L30.3365 33.3353L31.6508 33.4573L34.6572 1.06099L33.3428 0.939014ZM1 1.66H34V0.34H1V1.66ZM4.66044 33.3404L1.65718 0.939086L0.342817 1.06091L3.34607 33.4622L4.66044 33.3404ZM8.91205 19.5789L8.54183 15.605L7.22753 15.7275L7.59774 19.7014L8.91205 19.5789ZM17.4855 18.9801H8.2549V20.3001H17.4855V18.9801ZM17.4998 18.9801H17.4855V20.3001H17.4998V18.9801ZM22.5727 18.9801H17.4998V20.3001H22.5727V18.9801ZM22.7502 24.8551L23.2298 19.7013L21.9155 19.579L21.4358 24.7328L22.7502 24.8551ZM17.6512 26.6291L22.2589 25.4328L21.9271 24.1552L17.3195 25.3514L17.6512 26.6291ZM18.1453 25.9906V25.9902H16.8253V25.9906H18.1453ZM17.6443 26.6311L17.648 26.6302L17.3227 25.3509L17.3191 25.3518L17.6443 26.6311ZM12.7149 25.4353L17.3158 26.6303L17.6477 25.3527L13.0467 24.1577L12.7149 25.4353ZM11.9295 21.6881L12.2236 24.8575L13.538 24.7355L13.2438 21.5661L11.9295 21.6881ZM8.43949 22.2871H12.5866V20.9671H8.43949V22.2871ZM9.67541 27.8058L9.09667 21.5662L7.78231 21.6881L8.36105 27.9277L9.67541 27.8058ZM17.6511 29.4887L9.18849 27.2291L8.84796 28.5044L17.3106 30.764L17.6511 29.4887ZM17.3328 29.4829L17.3138 29.4879L17.6478 30.7649L17.6669 30.7599L17.3328 29.4829ZM16.8398 30.1206V30.1214H18.1598V30.1206H16.8398ZM25.7847 27.229L17.3298 29.4829L17.6698 30.7584L26.1247 28.5045L25.7847 27.229ZM25.3596 27.1346L25.2975 27.806L26.6119 27.9275L26.674 27.2561L25.3596 27.1346ZM26.3305 16.6724L25.3596 27.1343L26.6739 27.2563L27.6449 16.7943L26.3305 16.6724ZM26.4314 15.6042L26.3306 16.6713L27.6448 16.7954L27.7455 15.7283L26.4314 15.6042ZM27.177 7.56212L26.4313 15.6053L27.7456 15.7272L28.4914 7.68398L27.177 7.56212ZM17.4998 8.28305H27.8342V6.96305H17.4998V8.28305ZM17.4855 8.28305H17.4998V6.96305H17.4855V8.28305ZM7.14062 8.28305H17.4855V6.96305H7.14062V8.28305ZM8.17322 11.5348L7.7977 7.56096L6.48355 7.68514L6.85907 11.659L8.17322 11.5348ZM17.4855 10.9369H7.51615V12.2569H17.4855V10.9369ZM17.4998 10.9369H17.4855V12.2569H17.4998V10.9369ZM23.3067 10.9369H17.4998V12.2569H23.3067V10.9369ZM23.588 15.727L23.9639 11.6576L22.6495 11.5362L22.2736 15.6055L23.588 15.727ZM17.4998 16.3263H22.9308V15.0063H17.4998V16.3263ZM17.4855 16.3263H17.4998V15.0063H17.4855V16.3263ZM7.88468 16.3263H17.4855V15.0063H7.88468V16.3263Z" fill="#D8DADD"/>
</svg>
