<svg width="25" height="34" viewBox="0 0 25 34" fill="none" xmlns="http://www.w3.org/2000/svg">
<g clip-path="url(#clip0_1173_853)">
<path d="M12.9213 10.8744H7.37439C4.73942 10.8744 2.60336 8.73837 2.60336 6.1034C2.60336 3.46842 4.73942 1.33236 7.37439 1.33236H12.9213V10.8744Z" stroke="#D8DADD" stroke-width="1.32"/>
<path d="M12.1454 21.7365H7.37439C4.73942 21.7365 2.60336 19.6004 2.60336 16.9655C2.60336 14.3305 4.73942 12.1944 7.37439 12.1944H12.1454V21.7365Z" stroke="#D8DADD" stroke-width="1.32"/>
<path d="M7.37439 32.5987C4.73942 32.5987 2.60336 30.4626 2.60336 27.8276C2.60336 25.1927 4.73942 23.0566 7.37439 23.0566H12.1454V27.8276C12.1454 30.4626 10.0094 32.5987 7.37439 32.5987Z" stroke="#D8DADD" stroke-width="1.32"/>
<path d="M18.2365 10.8744H13.4654V1.33236H18.2365C20.8714 1.33236 23.0075 3.46842 23.0075 6.1034C23.0075 8.73837 20.8714 10.8744 18.2365 10.8744Z" stroke="#D8DADD" stroke-width="1.32"/>
<path d="M23.0075 16.9655C23.0075 19.6004 20.8714 21.7365 18.2365 21.7365C15.6015 21.7365 13.4654 19.6004 13.4654 16.9655C13.4654 14.3305 15.6015 12.1944 18.2365 12.1944C20.8714 12.1944 23.0075 14.3305 23.0075 16.9655Z" stroke="#D8DADD" stroke-width="1.32"/>
</g>
<defs>
<clipPath id="clip0_1173_853">
<rect width="24" height="33.931" fill="white" transform="translate(0.857178)"/>
</clipPath>
</defs>
</svg>
