<svg width="32" height="29" viewBox="0 0 32 29" fill="none" xmlns="http://www.w3.org/2000/svg">
<path d="M5.16959 0.180908H26.7994C27.6294 0.222838 28.4761 0.817964 28.518 1.69826C28.5683 2.92233 28.518 4.15475 28.5347 5.38716C28.5514 11.2807 28.5347 17.1829 28.543 23.0765C21.7775 23.0848 15.0034 23.0681 8.23789 23.0848C7.22346 23.11 6.2007 23.1603 5.18627 23.0765C5.136 15.4557 5.16103 7.83507 5.16959 0.222835V0.180908ZM13.3612 5.37228C13.3612 9.57245 13.3864 13.7726 13.3528 17.9728C14.4259 18.0902 15.5242 18.1236 16.5889 17.9308C16.5302 16.2794 16.5889 14.6193 16.5553 12.9593C17.9218 12.8168 19.2967 12.9257 20.6716 12.8838C20.6549 12.1459 20.6549 11.4167 20.6716 10.6788C19.305 10.6705 17.9385 10.6955 16.5636 10.6622C16.5469 9.67299 16.5553 8.67524 16.5636 7.6775C18.1901 7.6775 19.8249 7.66916 21.4513 7.68584C21.4597 6.90609 21.4513 6.12656 21.443 5.34681C18.7518 5.38062 16.0607 5.3556 13.3612 5.37228Z" fill="#D8DADD"/>
<path d="M0.270508 3.25008C1.91365 2.21041 3.59038 1.22957 5.25877 0.232056C5.25043 7.85286 5.22518 15.4734 5.27545 23.0857C4.50426 23.5383 3.74953 24.0079 2.97834 24.4606C2.07303 25.0054 1.17582 25.5588 0.270508 26.0954V3.25008Z" fill="#D8DADD"/>
<path d="M28.5018 5.37101C29.248 5.36267 30.0025 5.36267 30.7487 5.36267C30.732 12.9666 30.7487 20.5705 30.7403 28.1829H4.38198C3.69443 28.074 3.02378 27.6212 2.88965 26.9086C2.75552 26.0955 2.85606 25.2571 2.84772 24.4354C3.61891 23.9828 4.38198 23.5132 5.14483 23.0605C6.15925 23.1444 7.18202 23.0941 8.19644 23.0689C14.962 23.0522 21.7361 23.0689 28.5016 23.0605C28.5018 17.1667 28.5102 11.2646 28.5018 5.37101Z" stroke="#D8DADD" stroke-width="1.32"/>
</svg>
