<svg width="32" height="31" viewBox="0 0 32 31" fill="none" xmlns="http://www.w3.org/2000/svg">
<path d="M15.7809 1C12.2711 1.00014 8.87596 2.23659 6.20285 4.4881C3.52973 6.73961 1.75313 9.85925 1.19091 13.2888C0.628694 16.7184 1.31756 20.2342 3.13425 23.207C4.95093 26.1798 7.77689 28.4156 11.1065 29.5145C11.8455 29.6426 12.1227 29.2036 12.1227 28.8195C12.1227 28.472 12.1042 27.3197 12.1042 26.0943C8.39046 26.771 7.42971 25.1981 7.13409 24.375C6.80607 23.5745 6.28608 22.8651 5.61906 22.3082C5.10173 22.0338 4.36268 21.3571 5.60056 21.3388C6.07324 21.3896 6.52658 21.5524 6.92218 21.8135C7.31778 22.0745 7.64398 22.4262 7.87313 22.8386C8.07529 23.1981 8.34713 23.5146 8.67306 23.7699C8.99899 24.0252 9.37261 24.2144 9.77252 24.3265C10.1724 24.4387 10.5908 24.4716 11.0035 24.4234C11.4163 24.3752 11.8154 24.2469 12.178 24.0457C12.242 23.3019 12.5769 22.6064 13.1203 22.0887C9.8316 21.7229 6.39505 20.4608 6.39505 14.8641C6.37428 13.4098 6.91635 12.0029 7.91009 10.9317C7.45821 9.66776 7.51108 8.28072 8.0579 7.05412C8.0579 7.05412 9.29575 6.67001 12.1226 8.55393C14.5412 7.89544 17.0945 7.89544 19.5131 8.55393C22.3399 6.65174 23.5778 7.05412 23.5778 7.05412C24.1247 8.2807 24.1775 9.66777 23.7256 10.9317C24.7223 12.001 25.2649 13.4092 25.2406 14.8641C25.2406 20.4791 21.7856 21.7229 18.4969 22.0887C18.8496 22.4427 19.1213 22.8676 19.2934 23.3347C19.4656 23.8018 19.5342 24.3 19.4946 24.7957C19.4946 26.7528 19.4761 28.3257 19.4761 28.8195C19.4761 29.2037 19.7532 29.6609 20.4923 29.5146C23.816 28.4067 26.6338 26.1656 28.4428 23.1913C30.2517 20.217 30.934 16.703 30.3679 13.2768C29.8018 9.85051 28.0241 6.73491 25.3522 4.48614C22.6802 2.23737 19.288 1.00181 15.7809 1Z" stroke="#D8DADD" stroke-width="1.32"/>
</svg>
