<svg width="37" height="41" viewBox="0 0 37 41" fill="none" xmlns="http://www.w3.org/2000/svg">
<g clip-path="url(#clip0_1140_891)">
<path d="M36 1L36.6571 1.06217L36.7254 0.34H36V1ZM1 1V0.34H0.274676L0.342929 1.06211L1 1ZM32.7153 35.7145L32.8913 36.3506L33.3295 36.2294L33.3723 35.7767L32.7153 35.7145ZM18.4982 39.6486L18.3222 40.2847L18.4982 40.3334L18.6742 40.2847L18.4982 39.6486ZM4.28117 35.7145L3.6241 35.7766L3.66689 36.2293L4.10515 36.3506L4.28117 35.7145ZM27.6624 8.08708L28.3158 7.99398L28.2351 7.42708H27.6624V8.08708ZM9.95128 8.08708V7.42708H9.35014L9.29415 8.02561L9.95128 8.08708ZM28.6319 14.8907V15.5507H29.3926L29.2853 14.7976L28.6319 14.8907ZM24.1723 14.8907L23.5138 14.9345L23.5548 15.5507H24.1723V14.8907ZM24.0066 12.3989L24.6652 12.3551L24.6242 11.7389H24.0066V12.3989ZM12.9273 12.3989V11.7389H12.2976L12.268 12.3678L12.9273 12.3989ZM12.7223 16.748L12.0631 16.7169L12.0305 17.408H12.7223V16.748ZM28.6911 16.748L29.3482 16.8101L29.4164 16.088H28.6911V16.748ZM27.4575 29.8015L27.6336 30.4376L28.0718 30.3163L28.1146 29.8636L27.4575 29.8015ZM18.4988 32.2817L18.3226 32.9177L18.4988 32.9665L18.6749 32.9177L18.4988 32.2817ZM9.54408 29.8015L8.88703 29.8639L8.92995 30.3163L9.36792 30.4376L9.54408 29.8015ZM8.91324 23.1513V22.4913H8.18767L8.25619 23.2137L8.91324 23.1513ZM13.3354 23.1513L13.9928 23.0937L13.94 22.4913H13.3354V23.1513ZM13.6272 26.4795L12.9697 26.5371L13.0095 26.9915L13.4486 27.1149L13.6272 26.4795ZM18.4988 27.8486L18.3202 28.484L18.4987 28.5342L18.6771 28.4841L18.4988 27.8486ZM23.2996 26.5012L23.4779 27.1367L23.9165 27.0135L23.957 26.5598L23.2996 26.5012ZM23.7896 21.0024L24.447 21.061L24.5111 20.3424H23.7896V21.0024ZM8.74306 21.0024L8.08593 20.9409L8.01844 21.6624H8.74306V21.0024ZM36 0.34H1V1.66H36V0.34ZM33.3723 35.7767L36.6571 1.06217L35.3429 0.937828L32.0582 35.6523L33.3723 35.7767ZM18.6742 40.2847L32.8913 36.3506L32.5393 35.0784L18.3222 39.0125L18.6742 40.2847ZM4.10515 36.3506L18.3222 40.2847L18.6742 39.0125L4.45718 35.0784L4.10515 36.3506ZM0.342929 1.06211L3.6241 35.7766L4.93824 35.6524L1.65707 0.937895L0.342929 1.06211ZM27.6624 7.42708H9.95128V8.74708H27.6624V7.42708ZM29.2853 14.7976L28.3158 7.99398L27.009 8.18019L27.9785 14.9838L29.2853 14.7976ZM24.1723 15.5507H28.6319V14.2307H24.1723V15.5507ZM23.3481 12.4427L23.5138 14.9345L24.8309 14.8469L24.6652 12.3551L23.3481 12.4427ZM12.9273 13.0589H24.0066V11.7389H12.9273V13.0589ZM13.3816 16.7791L13.5865 12.4299L12.268 12.3678L12.0631 16.7169L13.3816 16.7791ZM28.6911 16.088H12.7223V17.408H28.6911V16.088ZM28.1146 29.8636L29.3482 16.8101L28.0341 16.6859L26.8004 29.7394L28.1146 29.8636ZM18.6749 32.9177L27.6336 30.4376L27.2814 29.1655L18.3227 31.6456L18.6749 32.9177ZM9.36792 30.4376L18.3226 32.9177L18.675 31.6456L9.72025 29.1655L9.36792 30.4376ZM8.25619 23.2137L8.88703 29.8639L10.2011 29.7392L9.57029 23.089L8.25619 23.2137ZM13.3354 22.4913H8.91324V23.8113H13.3354V22.4913ZM14.2846 26.4218L13.9928 23.0937L12.6779 23.209L12.9697 26.5371L14.2846 26.4218ZM18.6774 27.2132L13.8057 25.8441L13.4486 27.1149L18.3202 28.484L18.6774 27.2132ZM23.1212 25.8658L18.3204 27.2132L18.6771 28.4841L23.4779 27.1367L23.1212 25.8658ZM23.1323 20.9438L22.6422 26.4426L23.957 26.5598L24.447 21.061L23.1323 20.9438ZM8.74306 21.6624H23.7896V20.3424H8.74306V21.6624ZM9.29415 8.02561L8.08593 20.9409L9.40019 21.0639L10.6084 8.14856L9.29415 8.02561Z" fill="#D8DADD"/>
</g>
<defs>
<clipPath id="clip0_1140_891">
<rect width="37" height="41" fill="white"/>
</clipPath>
</defs>
</svg>
