<svg width="38" height="37" viewBox="0 0 38 37" fill="none" xmlns="http://www.w3.org/2000/svg">
<g clip-path="url(#clip0_1173_834)">
<path d="M13.4497 9.18091C11.7205 9.18091 10.0766 9.18091 8.95581 9.26404C8.81704 9.26404 8.57153 9.34717 8.57153 9.47186V27.6771C8.57153 27.833 8.64625 27.885 8.78502 27.885H11.443C11.6031 27.885 11.6564 27.8122 11.6564 27.6771V21.1723H13.0121C16.951 21.1723 20.1533 19.3227 20.1533 15.0207C20.1533 11.7579 18.2746 9.18091 13.4497 9.18091ZM13.0868 18.5329C12.6175 18.559 12.1471 18.559 11.6778 18.5329V11.9242C11.9874 11.9242 12.6492 11.8722 13.343 11.8722C15.6594 11.8722 17.0364 12.9633 17.0364 15.1143C17.0364 17.8056 15.115 18.5329 13.0868 18.5329ZM30.5715 24.0195C30.5715 26.7316 28.4366 28.1759 25.5546 28.1759C24.3196 28.2201 23.0921 27.9704 21.9786 27.4485C21.8612 27.3966 21.8398 27.3135 21.8398 27.1784V24.6637C21.8398 24.4975 21.9252 24.4455 22.0533 24.5286C23.0938 25.1948 24.3092 25.5556 25.5546 25.5677C26.9422 25.5677 27.5186 25.0066 27.5186 24.2377C27.5186 23.4687 27.113 23.0843 25.3838 22.1594C22.9073 21.006 21.8719 19.8318 21.8719 17.8783C21.8719 15.6858 23.6332 13.8673 26.686 13.8673C27.751 13.8201 28.8148 13.9827 29.8137 14.3453C29.8702 14.3807 29.9159 14.4302 29.946 14.4887C29.976 14.5472 29.9893 14.6126 29.9844 14.6778V17.0054C29.9844 17.1509 29.899 17.234 29.7283 17.1821C28.7912 16.6704 27.7278 16.4188 26.654 16.4547C25.277 16.4547 24.8073 17.1405 24.8073 17.7016C24.8073 18.2628 25.1276 18.7408 26.9422 19.6656C29.7176 20.9333 30.5715 22.1698 30.5715 23.9883V24.0195Z" fill="#D8DADD"/>
<rect x="1.23153" y="0.840908" width="35.68" height="34.68" stroke="#D8DADD" stroke-width="1.32"/>
</g>
<defs>
<clipPath id="clip0_1173_834">
<rect width="37" height="36" fill="white" transform="translate(0.571533 0.180908)"/>
</clipPath>
</defs>
</svg>
