<svg width="30" height="34" viewBox="0 0 30 34" fill="none" xmlns="http://www.w3.org/2000/svg">
<mask id="path-1-outside-1_1157_293" maskUnits="userSpaceOnUse" x="0" y="0" width="30" height="34" fill="black">
<rect fill="white" width="30" height="34"/>
<path d="M16.3108 14.6569C16.7579 14.9218 17.1183 15.3168 17.3466 15.792C17.5749 16.2672 17.6608 16.8012 17.5934 17.3265C17.526 17.8518 17.3084 18.3448 16.9681 18.7432C16.6277 19.1415 16.18 19.4274 15.6814 19.5645C15.1828 19.7016 14.6558 19.6839 14.167 19.5135C13.6782 19.3432 13.2496 19.0279 12.9354 18.6076C12.6212 18.1872 12.4355 17.6806 12.4017 17.1519C12.368 16.6232 12.4878 16.0961 12.7459 15.6373C13.092 15.022 13.662 14.5731 14.3306 14.3893C14.9991 14.2054 15.7114 14.3017 16.3108 14.6569ZM4.61346 17.5634C4.7848 17.3624 4.96559 17.1608 5.15585 16.9588C5.02295 16.8154 4.89436 16.6721 4.77006 16.529C2.42344 13.8226 1.43305 11.1085 2.35074 9.47673C3.2307 7.91223 5.84829 7.446 9.12529 8.10005C9.44806 8.16487 9.76906 8.23799 10.0883 8.31941C10.1494 8.10317 10.2144 7.88817 10.2833 7.67441C11.395 4.23562 13.1908 1.99882 15.0263 2C16.7863 2.00083 18.4873 4.09563 19.5725 7.33623C19.6793 7.65592 19.778 7.97828 19.8688 8.3033C20.0822 8.24955 20.2965 8.1999 20.5118 8.15435C23.9692 7.42568 26.754 7.90559 27.6699 9.53824C28.5482 11.1039 27.6297 13.663 25.4363 16.2464C25.2188 16.502 24.9951 16.7519 24.7652 16.996C25.0362 17.2825 25.2928 17.5689 25.5319 17.8536C27.6721 20.4006 28.5381 22.9178 27.6613 24.4767C26.7557 26.0869 24.0101 26.6132 20.6683 25.9382C20.3975 25.8831 20.1281 25.8211 19.8603 25.7522C19.7622 26.1038 19.6546 26.4523 19.5374 26.7977C18.4571 29.9733 16.7655 32.0006 15.0117 32C13.2005 31.9989 11.3849 29.8207 10.2848 26.5119C10.1979 26.2504 10.1157 25.9789 10.0377 25.6993C9.69173 25.7876 9.34353 25.866 8.9931 25.9345C5.77329 26.5598 3.21724 26.068 2.342 24.508C1.43821 22.8966 2.37004 20.1939 4.61346 17.5634ZM26.588 10.1777C26.0241 9.17274 23.7483 8.78066 20.7631 9.40974C20.5723 9.45001 20.3782 9.49501 20.1809 9.54474C20.4724 10.8681 20.678 12.2099 20.7965 13.5612C21.8736 14.3391 22.9006 15.1876 23.8709 16.1016C24.0847 15.8747 24.2928 15.6422 24.4952 15.4043C26.3745 13.1907 27.1173 11.1212 26.588 10.1777ZM20.9084 18.7698C21.6544 18.1899 22.3478 17.5959 22.9771 16.9984C22.3483 16.4045 21.6544 15.8125 20.9099 15.2341C20.9366 15.8233 20.9499 16.4129 20.9496 17.0029C20.9492 17.5921 20.9355 18.1811 20.9084 18.7698ZM20.9092 24.6807C22.1758 24.9698 23.4834 25.0172 24.7667 24.8205C25.1185 24.7923 25.4609 24.6905 25.7728 24.5211C26.0847 24.3518 26.3595 24.1186 26.5802 23.836C27.1122 22.89 26.4169 20.869 24.5865 18.6907C24.3564 18.4177 24.1187 18.1518 23.8735 17.8931C22.903 18.8118 21.8744 19.6637 20.7943 20.4432C20.6742 21.8117 20.4661 23.1707 20.1715 24.5111C20.416 24.5739 20.6619 24.6304 20.9092 24.6807ZM10.5323 12.6217C11.0224 12.3047 11.5186 11.9979 12.0208 11.7013C12.515 11.4093 13.0152 11.1282 13.5213 10.8582C12.6547 10.4842 11.8029 10.1647 10.9805 9.90445C10.7867 10.8019 10.6371 11.7088 10.5323 12.6217ZM18.3918 7.7528C17.462 4.9761 16.0863 3.28202 15.0256 3.28155C13.8959 3.281 12.4281 5.10894 11.4683 8.07798C11.4059 8.27153 11.347 8.46617 11.2914 8.6619C12.5524 9.06335 13.7861 9.55001 14.9844 10.1187C16.1778 9.54332 17.4076 9.05124 18.6655 8.64579C18.5814 8.34587 18.4901 8.04821 18.3918 7.7528ZM18.9768 9.88848C18.1191 10.1657 17.2755 10.4871 16.4492 10.8515C17.473 11.3938 18.4702 11.9845 19.4411 12.6236C19.3238 11.6666 19.1677 10.7497 18.9768 9.88848ZM19.4389 21.3795C18.9548 21.6976 18.4636 22.004 17.9653 22.2986C17.457 22.5989 16.942 22.8867 16.4201 23.1619C17.2527 23.5389 18.1035 23.8718 18.9693 24.1593C19.1624 23.2861 19.3202 22.3531 19.4389 21.3795ZM11.4665 26.0977C11.8552 27.3684 12.4685 28.5548 13.2757 29.5976C13.4752 29.8963 13.7323 30.1499 14.031 30.3427C14.3297 30.5354 14.6637 30.6632 15.0124 30.7182C16.0766 30.7188 17.4348 29.0907 18.3587 26.375C18.4675 26.0539 18.5676 25.7299 18.659 25.403C17.3951 24.9845 16.1603 24.4785 14.9631 23.8885C13.7549 24.4608 12.5114 24.9511 11.2406 25.3562C11.31 25.6052 11.3853 25.8524 11.4665 26.0977ZM10.9371 24.1114C11.7689 23.8474 12.6331 23.5226 13.5121 23.1431C13.0166 22.8754 12.5175 22.5927 12.0147 22.295C11.4988 21.9892 10.9961 21.6758 10.5065 21.3547C10.604 22.2805 10.7477 23.2006 10.9371 24.1114ZM10.2849 16.9974C10.2839 17.9083 10.3116 18.8186 10.3681 19.728C11.088 20.2282 11.8481 20.7165 12.6389 21.1852C13.4265 21.6519 14.2068 22.0808 14.9723 22.469C15.7778 22.0728 16.5677 21.6458 17.3422 21.188C18.1123 20.733 18.8647 20.2485 19.5994 19.7345C19.6666 18.8253 19.7004 17.9145 19.7009 17.002C19.7016 16.0901 19.6683 15.1795 19.6015 14.2695C18.8817 13.7649 18.1272 13.277 17.347 12.8146C16.5633 12.3501 15.7732 11.923 14.9874 11.5359C14.1919 11.9328 13.4106 12.3581 12.6437 12.8119C11.8742 13.2659 11.1197 13.7452 10.3802 14.2499C10.3167 15.1643 10.285 16.0802 10.2849 16.9974ZM8.88686 9.35817C6.07919 8.79759 3.96223 9.17469 3.4319 10.1175C2.86696 11.1219 3.67664 13.3402 5.70254 15.677C5.81447 15.8059 5.93069 15.9355 6.05102 16.0655C7.03816 15.1495 8.08492 14.3037 9.18402 13.5337C9.29493 12.1971 9.49287 10.8697 9.77652 9.56031C9.4742 9.48396 9.17765 9.41658 8.88686 9.35817ZM9.07665 15.1852C8.33528 15.7408 7.62249 16.3355 6.94115 16.967C7.61948 17.6088 8.33002 18.2137 9.06987 18.7794C9.04722 18.1855 9.03608 17.5913 9.03644 16.9968C9.0367 16.3928 9.0501 15.7889 9.07665 15.1852ZM3.42414 23.8683C3.95527 24.8151 6.00757 25.2098 8.76118 24.6751C9.07674 24.6139 9.40054 24.5411 9.73258 24.4567C9.45577 23.1305 9.26661 21.7865 9.16638 20.4341C8.06912 19.6507 7.02567 18.7907 6.04343 17.8603C5.87155 18.0436 5.70807 18.226 5.55297 18.4076C4.67462 19.3879 3.97959 20.5257 3.50263 21.7643C3.35011 22.0909 3.26445 22.4461 3.25095 22.808C3.23745 23.1699 3.29639 23.5307 3.42414 23.8683Z"/>
</mask>
<path d="M16.3108 14.6569C16.7579 14.9218 17.1183 15.3168 17.3466 15.792C17.5749 16.2672 17.6608 16.8012 17.5934 17.3265C17.526 17.8518 17.3084 18.3448 16.9681 18.7432C16.6277 19.1415 16.18 19.4274 15.6814 19.5645C15.1828 19.7016 14.6558 19.6839 14.167 19.5135C13.6782 19.3432 13.2496 19.0279 12.9354 18.6076C12.6212 18.1872 12.4355 17.6806 12.4017 17.1519C12.368 16.6232 12.4878 16.0961 12.7459 15.6373C13.092 15.022 13.662 14.5731 14.3306 14.3893C14.9991 14.2054 15.7114 14.3017 16.3108 14.6569ZM4.61346 17.5634C4.7848 17.3624 4.96559 17.1608 5.15585 16.9588C5.02295 16.8154 4.89436 16.6721 4.77006 16.529C2.42344 13.8226 1.43305 11.1085 2.35074 9.47673C3.2307 7.91223 5.84829 7.446 9.12529 8.10005C9.44806 8.16487 9.76906 8.23799 10.0883 8.31941C10.1494 8.10317 10.2144 7.88817 10.2833 7.67441C11.395 4.23562 13.1908 1.99882 15.0263 2C16.7863 2.00083 18.4873 4.09563 19.5725 7.33623C19.6793 7.65592 19.778 7.97828 19.8688 8.3033C20.0822 8.24955 20.2965 8.1999 20.5118 8.15435C23.9692 7.42568 26.754 7.90559 27.6699 9.53824C28.5482 11.1039 27.6297 13.663 25.4363 16.2464C25.2188 16.502 24.9951 16.7519 24.7652 16.996C25.0362 17.2825 25.2928 17.5689 25.5319 17.8536C27.6721 20.4006 28.5381 22.9178 27.6613 24.4767C26.7557 26.0869 24.0101 26.6132 20.6683 25.9382C20.3975 25.8831 20.1281 25.8211 19.8603 25.7522C19.7622 26.1038 19.6546 26.4523 19.5374 26.7977C18.4571 29.9733 16.7655 32.0006 15.0117 32C13.2005 31.9989 11.3849 29.8207 10.2848 26.5119C10.1979 26.2504 10.1157 25.9789 10.0377 25.6993C9.69173 25.7876 9.34353 25.866 8.9931 25.9345C5.77329 26.5598 3.21724 26.068 2.342 24.508C1.43821 22.8966 2.37004 20.1939 4.61346 17.5634ZM26.588 10.1777C26.0241 9.17274 23.7483 8.78066 20.7631 9.40974C20.5723 9.45001 20.3782 9.49501 20.1809 9.54474C20.4724 10.8681 20.678 12.2099 20.7965 13.5612C21.8736 14.3391 22.9006 15.1876 23.8709 16.1016C24.0847 15.8747 24.2928 15.6422 24.4952 15.4043C26.3745 13.1907 27.1173 11.1212 26.588 10.1777ZM20.9084 18.7698C21.6544 18.1899 22.3478 17.5959 22.9771 16.9984C22.3483 16.4045 21.6544 15.8125 20.9099 15.2341C20.9366 15.8233 20.9499 16.4129 20.9496 17.0029C20.9492 17.5921 20.9355 18.1811 20.9084 18.7698ZM20.9092 24.6807C22.1758 24.9698 23.4834 25.0172 24.7667 24.8205C25.1185 24.7923 25.4609 24.6905 25.7728 24.5211C26.0847 24.3518 26.3595 24.1186 26.5802 23.836C27.1122 22.89 26.4169 20.869 24.5865 18.6907C24.3564 18.4177 24.1187 18.1518 23.8735 17.8931C22.903 18.8118 21.8744 19.6637 20.7943 20.4432C20.6742 21.8117 20.4661 23.1707 20.1715 24.5111C20.416 24.5739 20.6619 24.6304 20.9092 24.6807ZM10.5323 12.6217C11.0224 12.3047 11.5186 11.9979 12.0208 11.7013C12.515 11.4093 13.0152 11.1282 13.5213 10.8582C12.6547 10.4842 11.8029 10.1647 10.9805 9.90445C10.7867 10.8019 10.6371 11.7088 10.5323 12.6217ZM18.3918 7.7528C17.462 4.9761 16.0863 3.28202 15.0256 3.28155C13.8959 3.281 12.4281 5.10894 11.4683 8.07798C11.4059 8.27153 11.347 8.46617 11.2914 8.6619C12.5524 9.06335 13.7861 9.55001 14.9844 10.1187C16.1778 9.54332 17.4076 9.05124 18.6655 8.64579C18.5814 8.34587 18.4901 8.04821 18.3918 7.7528ZM18.9768 9.88848C18.1191 10.1657 17.2755 10.4871 16.4492 10.8515C17.473 11.3938 18.4702 11.9845 19.4411 12.6236C19.3238 11.6666 19.1677 10.7497 18.9768 9.88848ZM19.4389 21.3795C18.9548 21.6976 18.4636 22.004 17.9653 22.2986C17.457 22.5989 16.942 22.8867 16.4201 23.1619C17.2527 23.5389 18.1035 23.8718 18.9693 24.1593C19.1624 23.2861 19.3202 22.3531 19.4389 21.3795ZM11.4665 26.0977C11.8552 27.3684 12.4685 28.5548 13.2757 29.5976C13.4752 29.8963 13.7323 30.1499 14.031 30.3427C14.3297 30.5354 14.6637 30.6632 15.0124 30.7182C16.0766 30.7188 17.4348 29.0907 18.3587 26.375C18.4675 26.0539 18.5676 25.7299 18.659 25.403C17.3951 24.9845 16.1603 24.4785 14.9631 23.8885C13.7549 24.4608 12.5114 24.9511 11.2406 25.3562C11.31 25.6052 11.3853 25.8524 11.4665 26.0977ZM10.9371 24.1114C11.7689 23.8474 12.6331 23.5226 13.5121 23.1431C13.0166 22.8754 12.5175 22.5927 12.0147 22.295C11.4988 21.9892 10.9961 21.6758 10.5065 21.3547C10.604 22.2805 10.7477 23.2006 10.9371 24.1114ZM10.2849 16.9974C10.2839 17.9083 10.3116 18.8186 10.3681 19.728C11.088 20.2282 11.8481 20.7165 12.6389 21.1852C13.4265 21.6519 14.2068 22.0808 14.9723 22.469C15.7778 22.0728 16.5677 21.6458 17.3422 21.188C18.1123 20.733 18.8647 20.2485 19.5994 19.7345C19.6666 18.8253 19.7004 17.9145 19.7009 17.002C19.7016 16.0901 19.6683 15.1795 19.6015 14.2695C18.8817 13.7649 18.1272 13.277 17.347 12.8146C16.5633 12.3501 15.7732 11.923 14.9874 11.5359C14.1919 11.9328 13.4106 12.3581 12.6437 12.8119C11.8742 13.2659 11.1197 13.7452 10.3802 14.2499C10.3167 15.1643 10.285 16.0802 10.2849 16.9974ZM8.88686 9.35817C6.07919 8.79759 3.96223 9.17469 3.4319 10.1175C2.86696 11.1219 3.67664 13.3402 5.70254 15.677C5.81447 15.8059 5.93069 15.9355 6.05102 16.0655C7.03816 15.1495 8.08492 14.3037 9.18402 13.5337C9.29493 12.1971 9.49287 10.8697 9.77652 9.56031C9.4742 9.48396 9.17765 9.41658 8.88686 9.35817ZM9.07665 15.1852C8.33528 15.7408 7.62249 16.3355 6.94115 16.967C7.61948 17.6088 8.33002 18.2137 9.06987 18.7794C9.04722 18.1855 9.03608 17.5913 9.03644 16.9968C9.0367 16.3928 9.0501 15.7889 9.07665 15.1852ZM3.42414 23.8683C3.95527 24.8151 6.00757 25.2098 8.76118 24.6751C9.07674 24.6139 9.40054 24.5411 9.73258 24.4567C9.45577 23.1305 9.26661 21.7865 9.16638 20.4341C8.06912 19.6507 7.02567 18.7907 6.04343 17.8603C5.87155 18.0436 5.70807 18.226 5.55297 18.4076C4.67462 19.3879 3.97959 20.5257 3.50263 21.7643C3.35011 22.0909 3.26445 22.4461 3.25095 22.808C3.23745 23.1699 3.29639 23.5307 3.42414 23.8683Z" stroke="#D8DADD" stroke-width="2.64" mask="url(#path-1-outside-1_1157_293)"/>
</svg>
