<svg width="37" height="36" viewBox="0 0 37 36" fill="none" xmlns="http://www.w3.org/2000/svg">
<path d="M20.1627 24.8662L14.9094 10.1154C14.8948 10.0438 14.8232 10 14.7223 10H10.9961C10.923 10.0146 10.866 10.0862 10.8806 10.1593C10.8806 10.4749 10.8514 10.792 10.7944 11.0945C10.736 11.267 10.6936 11.397 10.6498 11.5402L6.01605 24.8238C5.97221 24.9962 6.01605 25.0824 6.17387 25.0824H8.88015C9.0102 25.0971 9.12418 25.0108 9.15341 24.8808L10.2464 21.4846H15.6006L16.7798 24.9392C16.809 25.0401 16.9099 25.1117 17.0107 25.0971H20.018C20.1627 25.0971 20.205 25.0255 20.1627 24.8662ZM11.0823 18.6204C11.2971 18.0169 11.528 17.3403 11.715 16.6067C11.9459 15.8863 12.1607 15.1673 12.377 14.4761C12.5786 13.8579 12.7365 13.2383 12.8665 12.6202H12.8943C12.9951 12.965 13.0959 13.3392 13.2114 13.7425C13.3268 14.159 13.4569 14.5769 13.6001 15.0226C13.7447 15.4683 13.8733 15.9009 14.018 16.3466C14.1466 16.7791 14.2766 17.1956 14.4067 17.5843C14.5353 17.9584 14.6507 18.3179 14.7369 18.6204H11.0823Z" fill="#D8DADD"/>
<path d="M31.0713 16.6778C30.8843 16.0728 30.5818 15.5263 30.2077 15.0367C29.8044 14.5326 29.2856 14.1453 28.6967 13.8852C27.9909 13.5681 27.2282 13.4249 26.4654 13.4395C25.5448 13.4395 24.7381 13.5549 24.063 13.8852C23.3865 14.2169 22.7961 14.6772 22.3212 15.253C21.8317 15.8434 21.4722 16.5054 21.2413 17.2243C20.9973 17.9726 20.8818 18.7354 20.8818 19.5128C20.8818 20.2318 20.9827 20.9376 21.1843 21.6142C21.386 22.304 21.7162 22.9382 22.1765 23.4993C22.6661 24.0897 23.2856 24.5646 23.99 24.8657C24.7381 25.1974 25.6602 25.3698 26.7532 25.3698C27.4444 25.3844 28.121 25.326 28.7976 25.1974C29.3002 25.1112 29.7752 24.9665 30.2355 24.7648C30.2793 24.7371 30.3085 24.7078 30.3363 24.664C30.3509 24.607 30.3655 24.55 30.3655 24.4916V22.2908C30.3655 22.1461 30.3217 22.1169 30.2501 22.1754C29.8468 22.3332 29.4157 22.4486 28.97 22.5056C28.4805 22.6064 27.9763 22.6503 27.4737 22.6649C26.8395 22.6781 26.2067 22.5495 25.631 22.304C25.1999 22.1315 24.839 21.829 24.5803 21.4418C24.3363 21.053 24.1916 20.6059 24.1346 20.1602C24.1346 20.1602 30.9705 20.1456 31.0567 20.1456C31.1575 20.1456 31.2437 20.0593 31.2584 19.9585C31.2715 19.8284 31.2861 19.6282 31.3153 19.355C31.33 19.0802 31.3446 18.7792 31.3446 18.4329C31.3446 17.8425 31.2584 17.2536 31.0713 16.6778ZM28.3227 17.9302C28.2218 18.0018 28.1064 18.0295 27.9909 18.0442C27.8185 18.0588 27.5453 18.0588 27.1712 18.0588H24.1346C24.177 17.6993 24.2778 17.3544 24.4503 17.0227C24.8258 16.3037 25.574 15.8858 26.3645 15.9296C27.2135 15.9004 27.9763 16.4469 28.2364 17.2536C28.2934 17.426 28.3227 17.5985 28.3227 17.7855V17.9302Z" fill="#D8DADD"/>
<rect x="0.66" y="0.66" width="35.68" height="34.68" stroke="#D8DADD" stroke-width="1.32"/>
</svg>
