<svg width="32" height="32" viewBox="0 0 32 32" fill="none" xmlns="http://www.w3.org/2000/svg">
<path d="M29.7862 13.9107L17.6512 1.7757C17.1365 1.25857 16.4587 1 15.781 1C15.1032 1 14.4254 1.25857 13.9107 1.7757L11.5108 4.1756L14.4806 7.14534C15.4672 6.56545 16.7525 6.69097 17.5984 7.53696C18.4444 8.38295 18.5674 9.66825 17.9876 10.6523L20.9071 13.5718C21.8937 12.992 23.179 13.1175 24.0249 13.9635C25.0291 14.9676 25.0291 16.5943 24.0249 17.5984C23.0208 18.6026 21.3941 18.6026 20.39 17.5984C19.544 16.7525 19.4185 15.4672 19.9983 14.4806L17.0788 11.5611C16.8704 11.6841 16.652 11.7744 16.4236 11.8322V19.7272C17.5307 20.0134 18.3516 21.01 18.3516 22.2075C18.3516 23.6283 17.2018 24.7781 15.781 24.7781C14.3601 24.7781 13.2104 23.6283 13.2104 22.2075C13.2104 21.01 14.0312 20.0134 15.1383 19.7272V11.8322C14.709 11.7217 14.2998 11.5083 13.9635 11.1719C13.1175 10.326 12.9945 9.04066 13.5744 8.0566L10.6021 5.08434L1.7757 13.9107C0.741434 14.9425 0.741434 16.6194 1.7757 17.6512L13.9107 29.7862C14.4254 30.3033 15.1032 30.5619 15.781 30.5619C16.4587 30.5619 17.1365 30.3033 17.6512 29.7862L29.7862 17.6512C30.8205 16.6194 30.8205 14.9425 29.7862 13.9107Z" stroke="#D8DADD" stroke-width="1.32"/>
</svg>
