<svg width="55" height="21" viewBox="0 0 55 21" fill="none" xmlns="http://www.w3.org/2000/svg">
<g clip-path="url(#clip0_1140_873)">
<path d="M9.88701 13.3525C9.2897 13.3525 8.75 13.3377 8.21333 13.3584C7.85252 13.3732 7.75246 13.1959 7.83129 12.9121C8.11327 11.9101 8.41041 10.911 8.71968 9.91489C8.79548 9.66956 8.9774 9.53359 9.28364 9.53359C10.6693 9.53359 12.0549 9.50995 13.4406 9.50108C14.2986 9.49517 15.1597 9.49517 16.0178 9.50108C16.4271 9.50699 16.5423 9.63114 16.4605 9.99175C16.2482 10.914 16.0269 11.8332 15.7934 12.7525C15.7025 13.1101 15.3022 13.3791 14.8717 13.3436C14.4684 13.3111 14.3017 13.453 14.1834 13.8284C13.7801 15.0994 13.2162 16.2995 12.3945 17.3754C11.1605 18.9922 9.48678 19.7903 7.45229 19.9085C6.50932 19.9647 5.5603 19.9942 4.65978 19.6514C2.72534 18.9183 1.70355 17.4434 1.2639 15.5428C0.769679 13.3939 1.0365 11.2657 1.5671 9.16116C2.06739 7.17189 2.87391 5.31268 4.25046 3.73428C5.78164 1.97852 7.71001 1.03266 10.1023 1.05926C12.6795 1.08882 14.4047 2.41894 14.9748 4.87227C15.1415 5.59053 15.1628 6.34427 15.2416 7.08026C15.278 7.42018 15.1142 7.58275 14.7595 7.5798C13.5255 7.57684 12.2914 7.57389 11.0574 7.5798C10.7542 7.5798 10.6511 7.44974 10.6208 7.16894C10.5783 6.78173 10.5359 6.38565 10.4116 6.01913C10.1811 5.32451 9.55046 4.99641 8.86522 5.28904C8.40435 5.48708 7.93438 5.80335 7.62815 6.18761C6.54571 7.55024 6.00297 9.15525 5.66642 10.8282C5.44811 11.9219 5.39353 13.0303 5.57242 14.1358C5.68461 14.8245 5.90595 15.4925 6.67002 15.729C7.46442 15.9743 8.17694 15.7053 8.77426 15.1733C9.31396 14.6915 9.66871 14.0915 9.88095 13.3496L9.88701 13.3525Z" stroke="#D8DADD" stroke-width="1.32" stroke-miterlimit="1" stroke-linejoin="round"/>
<path d="M34.6888 17.4078C33.3426 17.4078 32.0146 17.4018 30.6835 17.4196C30.5622 17.4196 30.3924 17.5674 30.3348 17.6856C30.0892 18.1999 29.8588 18.7201 29.6557 19.2522C29.5222 19.601 29.2948 19.7222 28.931 19.7192C27.7667 19.7074 26.6024 19.7192 25.4381 19.7162C24.7923 19.7162 24.6831 19.5537 24.9469 18.9862C27.1785 14.1889 29.4101 9.39453 31.6416 4.59724C32.0813 3.65137 32.5331 2.70847 32.9606 1.75374C33.097 1.45224 33.282 1.33401 33.6246 1.33697C35.3438 1.35175 37.0629 1.34288 38.7791 1.34584C39.3066 1.34584 39.3794 1.41678 39.3764 1.93404C39.3703 7.6772 39.3642 13.4204 39.3551 19.1635C39.3551 19.6187 39.2642 19.7133 38.7972 19.7162C37.6057 19.7222 36.4141 19.7222 35.2225 19.7162C34.7646 19.7162 34.6797 19.6128 34.6828 19.1517C34.6858 18.5901 34.6828 18.0255 34.6828 17.4107L34.6888 17.4078ZM35.2407 6.23476C35.2013 6.22294 35.1618 6.21407 35.1224 6.20225C34.1309 8.59055 33.1425 10.9788 32.1146 13.4588C33.0394 13.4588 33.855 13.4676 34.6676 13.444C34.7495 13.444 34.8829 13.2282 34.8889 13.11C34.9587 12.0193 35.0072 10.9256 35.0618 9.83199C35.1224 8.63193 35.18 7.43482 35.2407 6.23476Z" stroke="#D8DADD" stroke-width="1.32" stroke-miterlimit="1" stroke-linejoin="round"/>
<path d="M42.8057 16.1397C43.2393 16.3614 43.6759 16.5831 44.1095 16.8077C44.8857 17.2097 44.8888 17.0383 44.6704 18.0078C44.5704 18.4423 44.4582 18.8768 44.3703 19.3143C44.3096 19.6069 44.1368 19.7192 43.8457 19.7192C42.6814 19.7163 41.5171 19.7251 40.3528 19.7162C39.9041 19.7133 39.798 19.5566 39.9011 19.1192C41.2564 13.379 42.6147 7.63878 43.9609 1.89858C44.0549 1.5025 44.2308 1.32515 44.6644 1.34288C46.2683 1.41382 47.8814 1.38722 49.4762 1.54388C50.8619 1.67985 52.0777 2.28283 52.954 3.40309C53.6059 4.23663 53.903 5.20318 53.9727 6.23181C54.188 9.4034 53.2663 12.1434 50.6527 14.183C49.1063 15.3889 47.2932 15.9269 45.3223 15.9712C44.628 15.986 43.9367 15.9712 43.2424 15.9742C43.112 15.9742 42.9786 15.9919 42.8482 16.0037C42.8361 16.051 42.8209 16.0983 42.8088 16.1456L42.8057 16.1397ZM46.0955 11.8686C46.8384 11.9424 47.4266 11.7178 47.939 11.2863C49.1275 10.2842 49.8431 7.68607 49.3367 6.22885C49.1184 5.59335 48.7303 5.31255 48.0421 5.30663C47.2537 5.30072 46.4624 5.30368 45.674 5.30663C45.5619 5.30663 45.4497 5.33324 45.3405 5.34802C45.4133 5.51059 45.5043 5.58448 45.6073 5.63769C46.0349 5.86233 46.4502 6.11062 46.896 6.29388C47.2841 6.45349 47.3447 6.66336 47.2477 7.04466C46.8505 8.62897 46.4897 10.2192 46.0985 11.8715L46.0955 11.8686Z" stroke="#D8DADD" stroke-width="1.32" stroke-miterlimit="1" stroke-linejoin="round"/>
<path d="M16.7575 14.1416C17.3397 14.1416 17.9218 14.1475 18.504 14.1416C18.8526 14.1386 19.0042 14.2834 18.9952 14.6322C18.9891 14.8982 19.0164 15.1731 19.077 15.4333C19.1892 15.8914 19.4803 16.122 19.9139 16.1515C20.402 16.184 20.8053 15.9594 20.9781 15.5337C21.2661 14.8214 21.154 14.1297 20.7173 13.5267C20.3111 12.9681 19.8381 12.4479 19.3499 11.9543C18.3918 10.9877 17.4579 10.0123 16.9455 8.73241C15.5083 5.13518 17.7854 1.47292 21.73 1.06206C22.9004 0.940875 24.0617 0.976345 25.1684 1.41381C26.9603 2.12025 27.7608 3.5213 27.9548 5.31844C27.9942 5.66723 27.9942 6.01897 28.0033 6.37071C28.0124 6.67221 27.8578 6.81704 27.5455 6.81704C26.3812 6.81704 25.2169 6.81704 24.0526 6.81704C23.713 6.81704 23.5462 6.65447 23.528 6.32342C23.519 6.13425 23.5008 5.94508 23.4613 5.76181C23.337 5.15587 22.9732 4.86029 22.3668 4.86029C21.7634 4.86029 21.3025 5.22977 21.1964 5.80615C21.0964 6.35298 21.1964 6.88207 21.5269 7.31362C22.006 7.9373 22.5153 8.54915 23.0793 9.10189C24.1041 10.1098 25.0744 11.1414 25.4867 12.5454C25.8961 13.9376 25.8748 15.3298 25.3321 16.6836C24.7166 18.2176 23.5614 19.2137 21.9514 19.6867C20.5657 20.0916 19.1619 20.1182 17.7672 19.7281C15.9207 19.2108 14.8928 17.9782 14.5835 16.1574C14.5077 15.7081 14.4956 15.2441 14.4865 14.7859C14.4774 14.2066 14.5532 14.1475 15.1657 14.1475C15.6933 14.1475 16.2208 14.1475 16.7454 14.1475L16.7575 14.1416Z" stroke="#D8DADD" stroke-width="1.32" stroke-miterlimit="1" stroke-linejoin="round"/>
</g>
<defs>
<clipPath id="clip0_1140_873">
<rect width="55" height="21" fill="white"/>
</clipPath>
</defs>
</svg>
