<svg width="34" height="32" viewBox="0 0 34 32" fill="none" xmlns="http://www.w3.org/2000/svg">
<g clip-path="url(#clip0_1157_342)">
<path d="M11.8084 4.94797C13.0213 3.4333 15.3055 2.6853 16.8625 2.64664C21.2285 2.56397 23.0486 7.9973 23.1889 10.1573L25.21 10.7626C24.7445 4.1413 20.6227 0.667969 16.679 0.667969C12.9808 0.666636 9.56597 3.35197 8.18978 7.2893C6.31034 12.5386 7.54351 17.5853 9.84796 21.624C9.64693 21.8866 9.5255 22.3493 9.56597 22.7933C9.6051 24.0053 10.6359 25.0146 11.8704 25.0146H11.9514C13.2453 24.9746 14.2356 23.9053 14.1749 22.632C14.1749 21.42 13.1238 20.4133 11.8907 20.4133H11.8084C11.7274 20.4133 11.6073 20.4133 11.5048 20.452C9.82772 17.6253 9.11939 14.596 9.38383 11.328C9.54439 8.86397 10.3539 6.72397 11.8084 4.94797Z" stroke="#D8DADD" stroke-width="1.32" stroke-miterlimit="1" stroke-linejoin="round"/>
<path d="M2.06703 27.864C3.42163 29.8827 6.19155 31.1733 9.22322 31.1733C10.0314 31.1733 10.8814 31.1147 11.7098 30.912C16.9663 29.9027 20.9492 26.7533 23.2334 22.1107L23.2523 22.0693C24.4247 21.968 25.3341 20.9373 25.2747 19.7053C25.2127 18.4733 24.2021 17.4853 22.9703 17.4853H22.888C21.6157 17.5267 20.624 18.596 20.6645 19.8693C20.705 20.5147 20.9694 21.04 21.331 21.4227C19.917 24.1693 17.7947 26.1867 14.5796 27.884C12.4168 29.0133 10.1326 29.4387 7.90909 29.136C6.04989 28.8747 4.59544 28.044 3.70496 26.7133C2.37195 24.6933 2.25052 22.5147 3.36092 20.3347C4.17179 18.76 5.38338 17.6093 6.1929 17.0427C5.99052 16.5187 5.74766 15.6307 5.62623 14.9653C-0.360194 19.244 0.248298 25.0973 2.06703 27.864Z" stroke="#D8DADD" stroke-width="1.32" stroke-miterlimit="1" stroke-linejoin="round"/>
<path d="M32.4685 26.9733C33.6801 24.5506 33.5803 20.4733 30.4866 16.98L30.4677 17.02C27.3362 13.3453 22.7259 11.3266 17.4681 11.3266H16.78C16.4386 10.58 15.6507 10.1146 14.7602 10.1146H14.6995C13.4272 10.1146 12.4355 11.2066 12.4774 12.4773C12.5178 13.688 13.5486 14.6986 14.7818 14.6986H14.8816C15.7924 14.6586 16.5803 14.092 16.9027 13.2853H17.6516C20.7669 13.2853 23.7162 14.1933 26.4066 15.9693C28.4668 17.3226 29.9442 19.0986 30.7726 21.2186C31.4985 22.9546 31.4593 24.6506 30.7119 26.0653C29.5597 28.2853 27.6181 29.4573 25.052 29.4573C23.4343 29.4573 21.8584 28.952 21.0489 28.5893C20.5645 28.9906 19.755 29.6573 19.1681 30.0626C20.9463 30.868 22.7462 31.3333 24.4839 31.3333C28.4263 31.3333 31.3554 29.1146 32.4685 26.9733Z" stroke="#D8DADD" stroke-width="1.32" stroke-miterlimit="1" stroke-linejoin="round"/>
</g>
<defs>
<clipPath id="clip0_1157_342">
<rect width="34" height="32" fill="white"/>
</clipPath>
</defs>
</svg>
