<svg width="25" height="24" viewBox="0 0 25 24" fill="none" xmlns="http://www.w3.org/2000/svg">
<g clip-path="url(#clip0_1202_462)">
<path d="M12.4985 0C5.87301 0 0.500007 5.394 0.500007 12.048C0.4973 14.5733 1.28828 17.0356 2.76115 19.0869C4.23403 21.1383 6.31432 22.6748 8.70801 23.4795C9.30801 23.5905 9.52701 23.2185 9.52701 22.899C9.52701 22.6125 9.51651 21.855 9.51051 20.85C6.17301 21.5775 5.46801 19.2345 5.46801 19.2345C4.92351 17.8425 4.13601 17.472 4.13601 17.472C3.04551 16.725 4.21701 16.74 4.21701 16.74C5.42151 16.8255 6.05451 17.982 6.05451 17.982C7.12551 19.8225 8.86401 19.2915 9.54801 18.9825C9.65601 18.204 9.96651 17.673 10.31 17.3715C7.64601 17.067 4.84401 16.0335 4.84401 11.418C4.84401 10.1025 5.31201 9.027 6.08001 8.184C5.95551 7.8795 5.54451 6.654 6.19701 4.9965C6.19701 4.9965 7.20501 4.6725 9.49701 6.231C10.4761 5.96342 11.4865 5.82723 12.5015 5.826C13.5166 5.82802 14.5269 5.96471 15.506 6.2325C17.7965 4.674 18.803 4.998 18.803 4.998C19.457 6.657 19.046 7.881 18.923 8.1855C19.6925 9.0285 20.156 10.104 20.156 11.4195C20.156 16.047 17.351 17.0655 14.678 17.364C15.1085 17.736 15.4925 18.471 15.4925 19.5945C15.4925 21.2055 15.4775 22.5045 15.4775 22.899C15.4775 23.2215 15.6935 23.5965 16.3025 23.478C18.6939 22.6714 20.7716 21.1343 22.2424 19.0835C23.7132 17.0326 24.5029 14.5717 24.5 12.048C24.5 5.394 19.127 0 12.4985 0Z" fill="#5C6BC0"/>
</g>
<defs>
<clipPath id="clip0_1202_462">
<rect width="24" height="24" fill="white" transform="translate(0.5)"/>
</clipPath>
</defs>
</svg>
