<svg width="25" height="24" viewBox="0 0 25 24" fill="none" xmlns="http://www.w3.org/2000/svg">
<g clip-path="url(#clip0_1202_464)">
<path d="M17 0H8C6.01088 0 4.10322 0.790176 2.6967 2.1967C1.29018 3.60322 0.5 5.51088 0.5 7.5L0.5 16.5C0.5 18.4891 1.29018 20.3968 2.6967 21.8033C4.10322 23.2098 6.01088 24 8 24H17C18.9891 24 20.8968 23.2098 22.3033 21.8033C23.7098 20.3968 24.5 18.4891 24.5 16.5V7.5C24.5 5.51088 23.7098 3.60322 22.3033 2.1967C20.8968 0.790176 18.9891 0 17 0ZM22.25 16.5C22.25 19.395 19.895 21.75 17 21.75H8C5.105 21.75 2.75 19.395 2.75 16.5V7.5C2.75 4.605 5.105 2.25 8 2.25H17C19.895 2.25 22.25 4.605 22.25 7.5V16.5Z" fill="url(#paint0_linear_1202_464)"/>
<path d="M12.5 6C10.9087 6 9.38258 6.63214 8.25736 7.75736C7.13214 8.88258 6.5 10.4087 6.5 12C6.5 13.5913 7.13214 15.1174 8.25736 16.2426C9.38258 17.3679 10.9087 18 12.5 18C14.0913 18 15.6174 17.3679 16.7426 16.2426C17.8679 15.1174 18.5 13.5913 18.5 12C18.5 10.4087 17.8679 8.88258 16.7426 7.75736C15.6174 6.63214 14.0913 6 12.5 6ZM12.5 15.75C11.5058 15.7488 10.5527 15.3533 9.84966 14.6503C9.14666 13.9473 8.75119 12.9942 8.75 12C8.75 9.9315 10.433 8.25 12.5 8.25C14.567 8.25 16.25 9.9315 16.25 12C16.25 14.067 14.567 15.75 12.5 15.75Z" fill="url(#paint1_linear_1202_464)"/>
<path d="M18.95 6.34998C19.3916 6.34998 19.7495 5.99203 19.7495 5.55048C19.7495 5.10892 19.3916 4.75098 18.95 4.75098C18.5085 4.75098 18.1505 5.10892 18.1505 5.55048C18.1505 5.99203 18.5085 6.34998 18.95 6.34998Z" fill="url(#paint2_linear_1202_464)"/>
</g>
<defs>
<linearGradient id="paint0_linear_1202_464" x1="2.696" y1="21.804" x2="22.304" y2="2.196" gradientUnits="userSpaceOnUse">
<stop stop-color="#FFC107"/>
<stop offset="0.507" stop-color="#F44336"/>
<stop offset="0.99" stop-color="#9C27B0"/>
</linearGradient>
<linearGradient id="paint1_linear_1202_464" x1="8.258" y1="16.242" x2="16.742" y2="7.758" gradientUnits="userSpaceOnUse">
<stop stop-color="#FFC107"/>
<stop offset="0.507" stop-color="#F44336"/>
<stop offset="0.99" stop-color="#9C27B0"/>
</linearGradient>
<linearGradient id="paint2_linear_1202_464" x1="18.3845" y1="6.11598" x2="19.5155" y2="4.98498" gradientUnits="userSpaceOnUse">
<stop stop-color="#FFC107"/>
<stop offset="0.507" stop-color="#F44336"/>
<stop offset="0.99" stop-color="#9C27B0"/>
</linearGradient>
<clipPath id="clip0_1202_464">
<rect width="24" height="24" fill="white" transform="translate(0.5)"/>
</clipPath>
</defs>
</svg>
