<svg width="32" height="37" viewBox="0 0 32 37" fill="none" xmlns="http://www.w3.org/2000/svg">
<path d="M15.9619 1.62854C15.3137 1.62854 14.6666 1.79838 14.0902 2.13792L3.00447 8.65413C1.87865 9.31352 1.18091 10.5338 1.18091 11.8354V26.1893C1.18091 27.54 1.91811 28.7811 3.10551 29.4282L6.7382 31.408C7.29741 31.7131 7.90282 31.8597 8.50884 31.8597C9.1592 31.8597 9.80136 31.6852 10.3901 31.3407C11.5233 30.669 12.1993 29.4831 12.1993 28.1643V12.5562H9.73577V28.1643C9.73577 28.7966 9.31663 29.1157 9.13433 29.2215C8.9545 29.3273 8.47131 29.5482 7.91702 29.2456L4.28914 27.2705C3.89252 27.054 3.6444 26.6395 3.6444 26.1893V11.8354C3.6444 11.4023 3.8762 10.9948 4.25065 10.7733L15.3364 4.25713C15.7207 4.03077 16.2031 4.03323 16.5874 4.25713L27.6731 10.7733C28.0451 10.9948 28.2793 11.4023 28.2793 11.8354V26.1989C28.2793 26.6418 28.0336 27.0587 27.6394 27.2801L16.5537 33.311C16.1842 33.5078 15.7396 33.5078 15.37 33.311L13.2049 32.1288C12.7861 32.6455 12.2666 33.0909 11.6507 33.46C11.4537 33.583 11.256 33.6793 11.0589 33.7531L14.1864 35.4734C14.753 35.7687 15.346 35.9203 15.9619 35.9203C16.5777 35.9203 17.1707 35.7687 17.7373 35.4734L28.823 29.4234C30.0055 28.7837 30.7428 27.5521 30.7428 26.1989V11.8354C30.7428 10.5338 30.0474 9.31352 28.9241 8.65413L17.8383 2.13792C17.2607 1.79838 16.6101 1.62854 15.9619 1.62854ZM19.5368 12.1958C15.6445 12.1958 13.6716 13.5507 13.6716 16.2227C13.6716 19.249 17.1615 19.6993 18.8391 19.9133C19.0806 19.9453 19.2947 19.9727 19.4646 20.0046L20.2008 20.1344C22.7628 20.5625 23.3523 20.8527 23.3523 21.6769C23.3523 22.0755 23.3503 23.282 19.5368 23.282C16.3022 23.282 15.6395 22.3234 15.6395 20.884H13.176C13.176 23.1033 14.2797 25.7424 19.5368 25.7424C24.7249 25.7424 25.8158 23.5321 25.8158 21.6769C25.8158 18.5818 22.8048 18.0743 20.6098 17.7028L19.9025 17.5827C19.698 17.5458 19.4401 17.5114 19.1519 17.477C17.5851 17.2752 16.1351 16.9853 16.1351 16.2275C16.1351 15.6789 16.1323 14.6586 19.5368 14.6562C21.8008 14.6562 22.953 15.4003 22.953 16.8667H25.4165C25.4165 14.6105 23.8676 12.1958 19.5368 12.1958Z" stroke="#D8DADD" stroke-width="1.32"/>
</svg>
