<svg width="37" height="36" viewBox="0 0 37 36" fill="none" xmlns="http://www.w3.org/2000/svg">
<g clip-path="url(#clip0_1157_325)">
<path d="M8.00128 25.8283V9.30354C7.99825 9.28051 8.00063 9.2571 8.00825 9.23512C8.01587 9.21314 8.02852 9.19318 8.04522 9.17676C8.06192 9.16034 8.08223 9.1479 8.10459 9.14041C8.12695 9.13293 8.15076 9.13058 8.17419 9.13356C9.42625 9.10169 10.9037 9 12.8304 9C15.103 9 16.7703 9.46593 17.8325 10.4691C18.3485 10.9438 18.7571 11.5199 19.0316 12.16C19.3061 12.8001 19.4404 13.4899 19.4257 14.1845C19.4257 16.0148 18.767 17.3747 17.4496 18.264C16.1322 19.1534 14.4751 19.5986 12.4784 19.5996L11.089 19.6239V25.804C11.0929 25.8304 11.0904 25.8573 11.0819 25.8826C11.0733 25.9079 11.0589 25.9309 11.0397 25.9498C11.0205 25.9686 10.9971 25.9828 10.9713 25.9912C10.9456 25.9997 10.9182 26.0021 10.8914 25.9982H8.19889C8.06766 25.9982 8.00128 25.9421 8.00128 25.8283ZM11.089 11.3706V17.3473C11.089 17.3473 11.793 17.32 12.6328 17.32C13.7372 17.32 14.6306 17.0812 15.3129 16.6037C15.9953 16.1261 16.337 15.344 16.3381 14.2573C16.3381 13.3022 16.0375 12.5656 15.4364 12.0475C14.8354 11.5295 13.9667 11.2725 12.8304 11.2765C12.551 11.2765 12.2746 11.2765 12.0029 11.2887C11.7312 11.3008 11.5089 11.3008 11.336 11.3008C11.1631 11.3008 11.0704 11.2948 11.089 11.3706ZM21.7415 13.8566H24.3661C24.4293 13.8546 24.4914 13.8733 24.5426 13.9098C24.5938 13.9464 24.6311 13.9987 24.6486 14.0585C24.8452 14.4719 24.959 14.9186 24.9836 15.3743C25.9747 14.1146 27.1944 13.5531 28.8185 13.5531C28.843 13.5488 28.8682 13.5504 28.8919 13.5577C28.9156 13.5651 28.9372 13.5779 28.9548 13.5952C28.9724 13.6125 28.9854 13.6337 28.9929 13.657C29.0004 13.6803 29.002 13.7051 28.9976 13.7292V16.4094C28.9976 16.5445 28.9297 16.6022 28.7923 16.5855C27.3055 16.502 26.126 16.6932 25.2723 17.5325C25.1864 17.6033 25.1163 17.6908 25.0666 17.7895C25.017 17.8883 24.9887 17.9961 24.9836 18.1062V25.8222C24.9836 25.939 24.9157 25.9982 24.7783 25.9982H22.1259C21.9716 25.9982 21.8959 25.9315 21.8959 25.7964V17.1956C21.8959 15.1588 21.7415 14.8689 21.5871 14.0327C21.5702 13.9158 21.6211 13.8566 21.7415 13.8566Z" fill="#D8DADD"/>
<rect x="0.66" y="0.66" width="35.68" height="34.68" stroke="#D8DADD" stroke-width="1.32"/>
</g>
<defs>
<clipPath id="clip0_1157_325">
<rect width="37" height="36" fill="white"/>
</clipPath>
</defs>
</svg>
