<svg width="37" height="36" viewBox="0 0 37 36" fill="none" xmlns="http://www.w3.org/2000/svg">
<g clip-path="url(#clip0_1157_298)">
<path d="M14.0845 21.0341L12.804 25.2575H10.0002L14.7688 10.3541H18.2349L23.0698 25.2575H20.1556L18.8089 21.0341H14.0845ZM18.3453 18.9777L17.1753 15.3072C16.8883 14.4006 16.6454 13.3835 16.4247 12.521H16.3805C16.1597 13.3835 15.939 14.4226 15.674 15.3072L14.526 18.9777H18.3453ZM27.0433 11.4817C27.0433 12.2998 26.4472 12.9411 25.4979 12.9411C24.5928 12.9411 23.9967 12.2999 23.9967 11.4817C23.9967 10.6415 24.6149 10.0002 25.52 10.0002C26.4472 10.0002 27.0212 10.6415 27.0433 11.4817ZM24.1513 25.2575V14.4889H26.8888V25.2575H24.1513Z" fill="#D8DADD"/>
<rect x="0.66" y="0.66" width="35.68" height="34.68" stroke="#D8DADD" stroke-width="1.32"/>
</g>
<defs>
<clipPath id="clip0_1157_298">
<rect width="37" height="36" fill="white"/>
</clipPath>
</defs>
</svg>
