<svg class="__symbols_copy" width="20" height="24" viewBox="0 0 20 24" fill="none" xmlns="http://www.w3.org/2000/svg">
<path class="__symbols_copy-path-1" fill-rule="evenodd" clip-rule="evenodd" d="M19.6372 7.63564C19.6372 5.82808 18.1719 4.36276 16.3643 4.36276H7.63664C5.82908 4.36276 4.36376 5.82808 4.36376 7.63564V20.7271C4.36376 22.5347 5.82908 24 7.63664 24H16.3643C18.1719 24 19.6372 22.5347 19.6372 20.7271V7.63564ZM17.4553 7.63564C17.4553 7.03312 16.9668 6.54468 16.3643 6.54468H7.63664C7.03412 6.54468 6.54568 7.03312 6.54568 7.63564V20.7271C6.54568 21.3297 7.03412 21.8181 7.63664 21.8181H16.3643C16.9668 21.8181 17.4553 21.3297 17.4553 20.7271V7.63564Z" fill="#D8DADD"/>
<path class="__symbols_copy-path-2" d="M3.27287 2.18192H14.1824C14.785 2.18192 15.2734 1.69347 15.2734 1.09096C15.2734 0.488443 14.785 0 14.1824 0H3.27287C1.46532 0 0 1.46532 0 3.27287V18.5463C0 19.1488 0.488443 19.6372 1.09096 19.6372C1.69347 19.6372 2.18191 19.1488 2.18191 18.5463V3.27287C2.18191 2.67036 2.67036 2.18192 3.27287 2.18192Z" fill="#D8DADD"/>
</svg>