<svg class="__symbols_copy" width="12" height="15" viewBox="0 0 12 15" fill="none" xmlns="http://www.w3.org/2000/svg">
    <path class="__symbols_copy-path-1" fill-rule="evenodd" clip-rule="evenodd" d="M12 4.66602C12 3.56145 11.1046 2.66602 9.99996 2.66602H4.66663C3.56206 2.66602 2.66663 3.56145 2.66663 4.66602V12.666C2.66663 13.7706 3.56206 14.666 4.66663 14.666H9.99996C11.1046 14.666 12 13.7706 12 12.666V4.66602ZM10.6666 4.66602C10.6666 4.29783 10.3682 3.99935 9.99996 3.99935H4.66663C4.29844 3.99935 3.99996 4.29783 3.99996 4.66602V12.666C3.99996 13.0342 4.29844 13.3327 4.66663 13.3327H9.99996C10.3682 13.3327 10.6666 13.0342 10.6666 12.666V4.66602Z" fill="#D8DADD"/>
    <path class="__symbols_copy-path-2" d="M2 1.33333H8.66667C9.03487 1.33333 9.33333 1.03485 9.33333 0.666667C9.33333 0.29848 9.03487 0 8.66667 0H2C0.895433 0 0 0.895433 0 2V11.3333C0 11.7015 0.29848 12 0.666667 12C1.03485 12 1.33333 11.7015 1.33333 11.3333V2C1.33333 1.63181 1.63181 1.33333 2 1.33333Z" fill="#D8DADD"/>
</svg>