<svg width="627" height="411" viewBox="0 0 627 411" fill="none" xmlns="http://www.w3.org/2000/svg">
<path d="M283.7 254.28L222.31 23.43C221.14 19.05 217.18 16 212.65 16H10C4.47 16.01 0 20.48 0 26.01V384.68C0 390.2 4.48 394.68 10 394.68H65.35C70.87 394.68 75.35 390.2 75.35 384.68V265.97C75.35 260.45 79.83 255.97 85.35 255.97H201.71C206.23 255.97 210.2 259.01 211.37 263.38L246.6 394.68H321.95L283.71 254.28H283.7ZM75.34 188.47V83.51H163.09L191.58 188.47H75.34Z" fill="#0B0F12"/>
<path d="M626.58 16.0098L524.96 394.67H449.61L551.23 16.0098H626.58Z" fill="#0B0F12"/>
<path d="M450.71 393.54L349.71 17.1602H422.69L523.69 393.54H450.71Z" fill="#0B0F12"/>
<path d="M348.21 8.02002H342.074L340.483 13.9464L238.863 392.596L236.16 402.67H246.59H321.94H328.076L329.666 396.744L431.286 18.0936L433.99 8.02002H423.56H348.21Z" fill="#FFC857" stroke="#F3F5F7" stroke-width="16"/>
</svg>
